<?xml version="1.0" standalone="no"?>
<!DOCTYPE svg PUBLIC "-//W3C//DTD SVG 20010904//EN"
 "http://www.w3.org/TR/2001/REC-SVG-20010904/DTD/svg10.dtd">
<svg version="1.0" xmlns="http://www.w3.org/2000/svg"
 width="920.000000pt" height="610.000000pt" viewBox="0 0 920.000000 610.000000"
 preserveAspectRatio="xMidYMid meet">

<g transform="translate(0.000000,610.000000) scale(0.100000,-0.100000)"
fill="#000000" stroke="none">
<path d="M5463 5423 c20 -3 27 -9 23 -19 -4 -9 1 -14 14 -14 11 0 29 -5 39
-12 16 -10 17 -16 8 -42 -6 -17 -15 -34 -21 -38 -7 -5 -3 -8 9 -8 14 0 16 -3
7 -12 -8 -8 -15 -8 -26 1 -11 9 -17 8 -30 -4 -18 -18 -21 -29 -6 -20 6 4 8 -3
6 -17 -2 -13 2 -33 10 -45 10 -15 10 -23 2 -25 -7 -3 -11 -31 -11 -74 0 -38
-5 -72 -11 -76 -8 -5 -8 -8 0 -8 8 0 11 -33 11 -105 l-1 -105 -30 0 c-46 0
-99 17 -142 46 -25 16 -1 -12 65 -79 l104 -106 49 5 c61 5 128 24 128 36 0 5
4 7 9 4 5 -3 20 3 34 14 14 11 29 20 33 20 4 0 34 27 66 61 69 72 116 164 125
249 l6 58 -103 104 c-57 56 -93 88 -80 70 27 -40 50 -113 50 -156 -1 -28 -2
-29 -14 -13 -13 17 -37 24 -34 10 3 -14 -20 -59 -36 -72 -21 -18 -20 -28 4
-36 16 -5 18 -10 8 -31 -15 -33 -32 -31 -24 4 5 22 2 20 -16 -13 -41 -70 -77
-55 -78 33 0 17 -4 32 -10 32 -5 0 -10 6 -10 14 0 9 -7 12 -20 9 -11 -3 -30 4
-46 16 -15 12 -22 21 -15 21 6 0 11 17 12 38 0 30 2 33 9 17 9 -20 15 -7 11
23 -1 7 6 15 15 19 16 6 15 7 -1 19 -15 11 -16 16 -5 29 11 14 14 13 27 -2 14
-17 14 -17 9 0 -4 11 3 31 15 48 18 26 24 28 60 23 36 -6 39 -5 33 12 -21 58
-93 91 -214 99 -25 2 -32 1 -17 -2z m167 -68 c0 -8 -6 -15 -14 -15 -20 0 -29
17 -14 23 22 9 28 7 28 -8z m120 -325 c0 -5 -5 -10 -11 -10 -5 0 -7 5 -4 10 3
6 8 10 11 10 2 0 4 -4 4 -10z m5 -50 c3 -5 1 -10 -4 -10 -6 0 -11 5 -11 10 0
6 2 10 4 10 3 0 8 -4 11 -10z m-212 -172 c-2 -5 -10 -8 -18 -8 -8 0 -16 3 -18
8 -3 4 5 7 18 7 13 0 21 -3 18 -7z"/>
<path d="M4672 5300 c0 -19 2 -27 5 -17 2 9 2 25 0 35 -3 9 -5 1 -5 -18z"/>
<path d="M4442 5295 c0 -16 2 -22 5 -12 2 9 2 23 0 30 -3 6 -5 -1 -5 -18z"/>
<path d="M4611 5294 c0 -11 3 -14 6 -6 3 7 2 16 -1 19 -3 4 -6 -2 -5 -13z"/>
<path d="M5620 5159 c0 -5 5 -7 10 -4 6 3 10 8 10 11 0 2 -4 4 -10 4 -5 0 -10
-5 -10 -11z"/>
<path d="M3990 5087 c0 -2 15 -16 33 -33 l32 -29 -29 33 c-28 30 -36 37 -36
29z"/>
<path d="M6170 4620 c0 -20 4 -20 148 -18 123 3 147 5 147 18 0 13 -24 15
-147 18 -144 2 -148 2 -148 -18z"/>
<path d="M6173 4515 c-11 -31 12 -36 153 -33 131 3 139 4 139 23 0 19 -8 20
-143 23 -123 2 -143 0 -149 -13z"/>
<path d="M2730 4444 c0 -12 37 -54 47 -54 4 0 -4 12 -18 28 -13 15 -25 29 -26
31 -2 2 -3 0 -3 -5z"/>
<path d="M2889 4307 c17 -45 13 -118 -9 -154 -25 -42 -68 -63 -126 -63 -41 0
-52 5 -91 41 -35 32 -49 39 -66 34 -27 -9 -64 -9 -99 0 -23 6 -32 1 -66 -35
l-38 -42 -82 4 -82 3 217 -217 c211 -212 248 -240 268 -208 3 6 15 10 26 10
10 0 19 5 19 10 0 6 9 10 20 10 11 0 20 5 20 10 0 6 8 10 18 10 10 0 24 9 32
20 8 11 20 20 27 20 19 0 143 125 143 144 0 9 5 16 10 16 6 0 10 7 10 15 0 9
9 25 20 37 11 12 20 32 20 44 0 12 4 24 8 26 5 2 12 15 16 30 6 25 -5 39 -109
145 -80 81 -113 109 -106 90z m-363 -187 c20 -8 36 -8 56 1 40 16 59 -2 27
-25 -43 -30 -155 -10 -134 23 8 14 17 14 51 1z m-36 -45 c33 -19 88 -19 124 0
36 19 46 19 46 0 0 -33 -106 -62 -161 -44 -40 14 -71 38 -63 50 7 13 25 11 54
-6z m-29 -46 c55 -28 126 -28 178 0 40 20 61 21 61 1 0 -17 -104 -60 -144 -60
-76 0 -168 42 -152 69 9 15 10 14 57 -10z"/>
<path d="M6713 4100 c-27 -11 -43 -40 -43 -79 0 -30 -1 -31 -50 -31 l-50 0 0
-88 0 -89 28 5 c41 6 82 -30 82 -74 0 -53 -35 -80 -93 -74 -16 1 -18 -7 -15
-87 l3 -88 53 -3 54 -3 -7 30 c-5 26 -2 36 23 61 38 38 66 38 103 1 24 -24 28
-35 23 -61 l-7 -31 54 3 54 3 3 88 c2 54 7 85 13 82 21 -14 71 7 89 37 15 24
16 36 8 60 -14 39 -50 62 -88 54 l-30 -5 0 89 0 90 -45 0 c-44 0 -45 1 -45 33
-1 36 -14 58 -47 75 -25 14 -40 14 -70 2z"/>
<path d="M7369 3683 c-13 -16 -12 -17 4 -4 16 13 21 21 13 21 -2 0 -10 -8 -17
-17z"/>
<path d="M7308 3663 c6 -2 18 -2 25 0 6 3 1 5 -13 5 -14 0 -19 -2 -12 -5z"/>
<path d="M6694 3227 c-2 -39 -35 -67 -80 -67 l-34 0 0 -75 0 -75 56 0 c56 0
56 0 51 -27 -7 -37 26 -83 59 -83 35 0 64 34 64 75 l0 35 58 0 57 0 -2 80 -2
80 33 0 c38 0 86 33 86 59 0 16 -14 17 -157 16 -87 0 -165 2 -173 6 -11 5 -15
0 -16 -24z"/>
<path d="M3791 3065 c-16 -14 -33 -36 -37 -48 -3 -12 -16 -32 -28 -45 -19 -21
-21 -35 -21 -132 0 -97 2 -111 21 -132 12 -13 25 -33 28 -45 4 -12 21 -34 39
-49 26 -22 38 -25 73 -21 l41 4 28 -56 c68 -140 201 -280 347 -366 67 -39 87
-56 94 -80 15 -51 138 -97 172 -63 7 7 12 27 12 46 0 31 -4 35 -56 59 -41 18
-65 24 -91 20 -29 -5 -47 0 -97 29 -73 43 -190 136 -211 168 -9 13 -32 41 -53
64 -21 22 -57 74 -81 116 -42 73 -42 75 -25 101 14 22 17 52 17 194 1 186 -7
222 -54 246 -42 22 -83 18 -118 -10z"/>
<path d="M5353 3080 c-13 -5 -32 -24 -43 -42 -19 -30 -20 -47 -18 -210 l3
-178 28 -27 c22 -23 36 -28 76 -28 55 0 81 17 102 68 7 17 21 39 31 49 37 37
39 209 2 250 -12 13 -27 38 -34 57 -23 57 -89 84 -147 61z"/>
<path d="M2140 2831 c0 -6 -15 -18 -32 -26 -18 -8 -26 -14 -17 -15 22 0 66 36
57 46 -5 4 -8 2 -8 -5z"/>
<path d="M2402 2810 c0 -19 2 -27 5 -17 2 9 2 25 0 35 -3 9 -5 1 -5 -18z"/>
<path d="M2210 2811 c0 -5 9 -7 20 -4 11 3 20 7 20 9 0 2 -9 4 -20 4 -11 0
-20 -4 -20 -9z"/>
<path d="M2581 2815 c1 -19 18 -51 18 -35 0 8 -4 22 -9 30 -5 8 -9 11 -9 5z"/>
<path d="M2345 2780 c-3 -5 -1 -10 4 -10 6 0 11 5 11 10 0 6 -2 10 -4 10 -3 0
-8 -4 -11 -10z"/>
<path d="M2265 2760 c-10 -11 -13 -20 -7 -20 6 0 16 9 22 20 6 11 9 20 7 20
-2 0 -12 -9 -22 -20z"/>
<path d="M2323 2733 c9 -2 23 -2 30 0 6 3 -1 5 -18 5 -16 0 -22 -2 -12 -5z"/>
<path d="M2591 2724 c0 -11 3 -14 6 -6 3 7 2 16 -1 19 -3 4 -6 -2 -5 -13z"/>
<path d="M2223 2703 c15 -2 39 -2 55 0 15 2 2 4 -28 4 -30 0 -43 -2 -27 -4z"/>
<path d="M2378 2703 c7 -3 16 -2 19 1 4 3 -2 6 -13 5 -11 0 -14 -3 -6 -6z"/>
<path d="M2390 2495 c-19 -20 -48 -40 -65 -44 -20 -6 -23 -9 -10 -10 25 -1 67
26 95 62 30 37 21 34 -20 -8z"/>
<path d="M2183 2323 c9 -2 23 -2 30 0 6 3 -1 5 -18 5 -16 0 -22 -2 -12 -5z"/>
<path d="M2395 2208 c-34 -72 -34 -163 -1 -234 27 -57 42 -72 59 -55 8 8 4 22
-14 53 -34 60 -35 175 -1 231 27 47 28 57 2 57 -15 0 -28 -14 -45 -52z"/>
<path d="M2840 2256 c0 -2 12 -29 26 -61 32 -70 31 -156 -4 -223 -27 -53 -27
-54 0 -50 53 7 87 140 61 238 -17 68 -38 100 -63 100 -11 0 -20 -2 -20 -4z"/>
<path d="M2504 2185 c-36 -55 -36 -135 0 -190 9 -14 23 -25 31 -25 19 0 19 29
0 54 -20 26 -19 106 1 134 16 23 13 52 -5 52 -6 0 -18 -11 -27 -25z"/>
<path d="M2756 2201 c-3 -4 4 -31 16 -60 l22 -51 -22 -51 c-22 -52 -21 -69 1
-69 24 0 51 63 51 115 0 76 -45 153 -68 116z"/>
<path d="M2633 2139 c-12 -4 -27 -18 -33 -30 -10 -18 -8 -26 9 -50 19 -25 21
-42 21 -158 0 -129 7 -155 33 -132 9 7 13 44 12 128 -1 100 1 123 18 151 11
20 17 42 13 56 -7 28 -44 46 -73 35z"/>
<path d="M2435 1705 c-17 -16 -25 -35 -25 -60 0 -25 8 -44 25 -60 24 -25 26
-25 212 -25 206 0 222 4 241 58 12 35 -6 85 -37 101 -12 7 -92 11 -206 11
-184 0 -186 0 -210 -25z"/>
<path d="M5996 1689 c-175 -43 -328 -201 -371 -380 -99 -422 339 -771 725
-579 208 104 323 337 276 559 -35 168 -131 291 -283 364 -83 39 -90 41 -197
43 -61 2 -129 -1 -150 -7z m54 -324 c6 -8 9 -23 6 -33 -8 -25 17 -46 57 -46
25 -1 33 -6 35 -24 2 -13 -3 -25 -12 -28 -23 -9 -19 -53 7 -74 18 -15 20 -22
11 -37 -6 -10 -22 -18 -36 -18 -33 0 -54 -24 -54 -60 1 -23 -4 -31 -20 -33
-11 -2 -27 4 -34 13 -18 21 -57 19 -70 -5 -21 -39 -60 -20 -60 30 0 24 -28 45
-55 42 -36 -5 -49 21 -25 51 26 32 25 59 -1 75 -30 19 -22 57 13 57 33 1 61
23 55 45 -10 39 45 72 59 35 9 -22 57 -19 72 5 14 24 35 26 52 5z m278 -11 c3
-24 41 -39 56 -24 27 27 69 -7 45 -36 -16 -19 -2 -52 24 -56 34 -5 35 -45 2
-58 -25 -9 -26 -13 -19 -56 l7 -46 -34 3 c-57 3 -67 0 -71 -23 -4 -30 -48 -39
-48 -10 0 28 -39 43 -66 25 -18 -12 -23 -11 -35 3 -9 11 -10 20 -2 32 14 23
-4 60 -31 64 -28 4 -28 40 1 53 26 11 33 33 19 56 -17 29 1 52 34 45 38 -7 60
1 60 23 0 24 10 32 35 29 12 -2 21 -12 23 -24z"/>
<path d="M5919 1260 c-29 -17 -43 -66 -29 -100 15 -36 37 -50 80 -50 41 0 80
39 80 80 0 60 -77 101 -131 70z"/>
<path d="M6273 1268 c-68 -33 -40 -138 37 -138 28 0 70 44 70 73 0 51 -61 88
-107 65z"/>
</g>
</svg>
