<?xml version="1.0" standalone="no"?>
<!DOCTYPE svg PUBLIC "-//W3C//DTD SVG 20010904//EN"
 "http://www.w3.org/TR/2001/REC-SVG-20010904/DTD/svg10.dtd">
<svg version="1.0" xmlns="http://www.w3.org/2000/svg"
 width="920.000000pt" height="717.000000pt" viewBox="0 0 920.000000 717.000000"
 preserveAspectRatio="xMidYMid meet">

<g transform="translate(0.000000,717.000000) scale(0.100000,-0.100000)"
fill="#000000" stroke="none">
<path d="M5500 6654 c-216 -14 -413 -44 -507 -78 -285 -101 -543 -336 -882
-801 -217 -298 -288 -389 -374 -482 -46 -50 -98 -113 -115 -139 -129 -203
-117 -539 30 -853 42 -89 65 -123 158 -231 134 -154 271 -353 344 -498 47 -93
71 -157 102 -271 31 -111 27 -142 -21 -206 -40 -51 -41 -55 -20 -55 46 0 155
88 155 125 0 8 4 15 9 15 5 0 7 -8 5 -17 -70 -314 -127 -530 -184 -697 -16
-50 -30 -91 -30 -93 0 -12 224 21 419 62 l64 13 191 191 c199 199 245 243 285
269 21 14 22 21 16 66 -9 73 -17 82 -75 89 -69 8 -152 55 -263 147 -204 171
-419 437 -525 652 -54 108 -90 249 -106 413 -17 165 -21 571 -6 580 6 3 45
-25 87 -64 42 -39 82 -71 89 -71 7 0 35 15 62 34 66 44 163 76 226 75 l51 -1
-51 -12 c-85 -21 -128 -63 -149 -147 -15 -60 34 -152 98 -186 39 -20 115 -20
153 0 112 58 134 197 46 283 -29 29 -31 34 -12 24 42 -22 145 -132 178 -190
39 -67 40 -61 5 27 -108 274 -287 349 -533 223 -52 -26 -131 -28 -187 -5 l-38
16 140 53 c343 129 864 384 1323 645 90 52 165 91 167 89 3 -3 -2 -26 -11 -52
-28 -82 -166 -212 -292 -275 -59 -30 -49 -35 17 -10 185 70 382 209 463 328
l32 45 32 -162 c34 -174 68 -283 115 -372 38 -70 48 -81 144 -164 142 -123
191 -196 202 -303 9 -85 -16 -246 -53 -343 -57 -150 -78 -316 -54 -441 l10
-53 -57 -54 c-157 -145 -371 -231 -586 -234 -78 -1 -91 1 -100 18 -17 30 -63
70 -106 91 l-40 20 22 21 21 21 -40 -19 c-33 -16 -47 -17 -89 -9 -66 13 -140
3 -193 -26 -23 -13 -40 -20 -38 -16 3 4 -26 12 -64 19 -92 16 -171 47 -225 88
-46 35 -53 34 -32 -2 37 -64 63 -82 148 -102 46 -12 103 -24 126 -27 36 -6 43
-11 48 -35 8 -36 63 -86 124 -113 33 -15 74 -21 146 -24 86 -4 105 -2 139 16
21 11 42 19 45 16 4 -2 46 -9 94 -15 144 -19 307 10 451 82 l59 30 -30 -39
c-69 -87 -202 -196 -335 -275 l-68 -40 0 -63 c0 -34 3 -90 6 -124 7 -58 8 -61
34 -61 37 0 101 -49 149 -114 62 -84 116 -198 168 -358 l48 -148 60 -24 c33
-14 165 -68 293 -120 l233 -95 -7 32 c-3 17 -54 158 -111 312 -91 243 -145
415 -167 533 l-6 34 50 -45 c28 -25 70 -56 93 -69 47 -26 127 -60 127 -54 0 3
-20 27 -43 55 -71 82 -102 154 -102 232 0 81 17 109 120 195 38 33 111 99 162
148 69 66 93 85 93 70 1 -29 82 67 120 141 47 93 56 185 42 422 -11 195 -10
231 8 487 14 181 12 298 -5 480 -40 416 -121 735 -226 891 -34 51 -115 125
-175 161 -23 13 -79 38 -125 55 -122 44 -163 71 -208 138 -88 130 -225 207
-466 265 -119 28 -379 49 -515 40z m95 -420 c3 -15 24 -29 64 -47 41 -18 65
-35 74 -54 24 -46 9 -172 -28 -244 -19 -36 -114 -133 -152 -155 -18 -10 -33
-22 -33 -26 0 -4 -6 -8 -14 -8 -8 0 -16 -4 -18 -9 -4 -10 -119 -85 -203 -131
-124 -69 -276 -150 -281 -150 -2 0 -59 -26 -127 -59 -137 -66 -185 -88 -274
-125 -35 -14 -87 -37 -117 -51 -30 -14 -57 -25 -60 -25 -3 0 -34 -13 -68 -28
-35 -16 -101 -43 -148 -61 -47 -18 -118 -47 -158 -63 -114 -45 -115 -43 -7 13
161 83 180 94 281 164 64 44 240 170 250 180 7 5 20 17 31 25 214 171 460 406
702 670 63 69 151 161 195 205 l81 80 3 -40 c1 -22 4 -50 7 -61z m-939 -302
c50 -5 69 -34 69 -106 0 -56 -4 -69 -37 -117 -67 -100 -256 -273 -413 -379
-27 -19 -55 -39 -61 -45 -30 -26 -61 -49 -195 -140 -82 -55 -122 -79 -94 -55
196 169 370 392 560 720 43 74 87 148 98 164 l20 29 11 -34 c9 -28 17 -35 42
-37z m65 -1146 c57 -24 99 -86 99 -144 -1 -47 -35 -107 -75 -132 -81 -50 -183
-21 -225 66 -25 51 -25 85 0 134 40 78 122 109 201 76z m2079 -241 c13 -14 21
-25 18 -25 -2 0 -15 11 -28 25 -13 14 -21 25 -18 25 2 0 15 -11 28 -25z m-190
1 c0 -2 -8 -10 -17 -17 -16 -13 -17 -12 -4 4 13 16 21 21 21 13z m-1653 -821
c0 -8 -4 -12 -9 -9 -5 3 -6 10 -3 15 9 13 12 11 12 -6z m48 -14 c3 -5 2 -12
-3 -15 -5 -3 -9 1 -9 9 0 17 3 19 12 6z m-521 -423 c-5 -7 -2 -9 9 -5 28 11
204 -109 251 -171 12 -15 14 -27 8 -35 -5 -7 -8 -20 -7 -30 2 -9 -1 -14 -7
-11 -6 4 -7 -7 -3 -29 4 -20 3 -42 -1 -49 -5 -7 -10 -21 -11 -30 -4 -28 -60
-113 -72 -110 -6 1 -11 -5 -11 -13 0 -8 -5 -15 -11 -15 -5 0 -7 -5 -4 -10 4
-6 3 -9 -2 -8 -4 1 -26 -15 -48 -36 -51 -49 -121 -97 -129 -89 -3 4 -6 2 -6
-4 0 -6 -7 -14 -15 -17 -10 -4 -7 6 10 28 28 36 89 158 112 221 29 82 35 202
14 267 -6 20 -29 59 -51 88 -41 56 -47 70 -29 70 5 0 7 -5 3 -12z m410 -275
c26 -32 47 -62 46 -66 -1 -5 6 -14 15 -21 16 -11 16 -14 1 -29 -9 -9 -12 -18
-7 -22 6 -3 15 3 21 12 6 10 9 14 7 8 -21 -58 -31 -75 -42 -75 -7 0 -16 -13
-20 -29 -3 -16 -16 -38 -28 -49 -26 -24 -115 -70 -145 -75 -12 -2 -25 -6 -28
-10 -4 -4 -14 -7 -22 -7 -9 0 8 23 38 53 76 75 119 143 126 199 7 49 20 65 21
26 1 -63 3 -73 12 -59 6 9 5 24 0 39 -5 14 -7 27 -4 30 3 3 5 1 5 -4 0 -5 9
-10 20 -10 11 0 19 5 17 11 -2 5 -11 9 -20 7 -8 -1 -19 2 -22 8 -4 7 -1 10 8
8 9 -2 15 2 14 7 -1 6 -6 9 -10 7 -5 -1 -5 3 -1 9 4 8 3 9 -4 5 -8 -5 -10 -2
-6 8 3 9 1 16 -4 16 -6 0 -9 -11 -6 -25 2 -14 0 -25 -6 -25 -6 0 -9 4 -6 8 3
5 -1 19 -8 33 -17 33 -26 69 -17 69 4 0 29 -26 55 -57z"/>
<path d="M4619 4701 c-21 -22 -29 -39 -29 -66 0 -51 44 -95 95 -95 47 0 71 14
91 52 51 99 -77 188 -157 109z m146 -31 c0 -19 -6 -26 -24 -28 -29 -4 -43 15
-30 41 15 28 54 19 54 -13z m-65 -35 c0 -8 -4 -15 -10 -15 -5 0 -10 7 -10 15
0 8 5 15 10 15 6 0 10 -7 10 -15z"/>
<path d="M4495 3270 c-3 -6 4 -10 17 -10 18 0 20 -2 8 -10 -12 -8 -12 -10 -1
-10 8 0 11 -3 8 -7 -4 -3 2 -16 12 -27 11 -12 25 -43 32 -71 6 -27 15 -57 19
-65 4 -8 5 -24 3 -35 -2 -11 -6 -36 -9 -55 -2 -19 -6 -41 -9 -47 -2 -7 1 -13
7 -13 7 0 5 -6 -4 -12 -9 -7 -18 -22 -20 -33 -2 -10 -27 -66 -55 -123 -29 -57
-46 -99 -38 -92 8 7 15 20 15 29 0 14 2 14 10 1 6 -10 10 -11 10 -2 0 6 4 11
8 10 11 -4 68 47 106 92 16 19 33 35 38 35 14 0 55 79 53 103 -1 11 5 24 13
27 10 4 12 14 7 41 -4 22 -2 41 6 50 6 8 8 14 4 14 -4 0 -2 7 5 15 10 12 6 22
-28 55 -44 44 -59 51 -42 20 6 -11 15 -18 19 -16 4 3 8 0 9 -7 2 -26 8 -47 16
-54 5 -4 6 6 2 22 -5 24 -4 27 5 12 7 -12 7 -26 0 -45 -5 -15 -10 -20 -10 -11
-1 9 -8 16 -16 16 -17 0 -20 -14 -5 -19 6 -2 12 -12 14 -23 2 -11 7 -28 11
-37 5 -12 2 -20 -9 -24 -11 -4 -15 -13 -11 -28 5 -19 4 -18 -8 3 -9 15 -17 20
-21 12 -4 -6 -3 -11 2 -11 6 0 8 -17 7 -37 -2 -21 -4 -42 -4 -48 -1 -5 -6 -3
-12 5 -8 12 -9 9 -4 -10 5 -19 4 -21 -4 -10 -8 12 -11 12 -17 -4 -5 -14 -9
-15 -16 -4 -8 10 -9 9 -5 -4 3 -9 -1 -24 -9 -35 -14 -17 -15 -17 -5 3 6 12 7
25 3 28 -4 4 -7 34 -8 67 0 32 3 54 7 48 5 -8 8 -8 13 0 4 6 1 14 -7 17 -9 3
-13 15 -11 32 4 28 11 63 14 72 1 3 2 8 1 13 0 4 4 7 9 7 6 0 10 7 10 16 0 13
-4 11 -18 -6 l-18 -22 -3 34 c-6 58 -1 98 12 98 5 0 7 -9 4 -20 -3 -11 -1 -22
3 -25 5 -3 11 5 13 17 3 15 4 14 2 -5 -1 -15 2 -30 7 -33 4 -3 8 1 8 8 0 10 3
9 10 -2 5 -8 12 -12 15 -8 3 3 -1 12 -9 20 -11 12 -12 18 -3 28 8 9 8 11 1 7
-7 -4 -15 0 -18 9 -3 8 -10 13 -15 10 -5 -3 -11 0 -14 7 -7 19 -104 69 -112
57z m74 -39 c11 -11 23 -16 27 -13 4 4 4 1 0 -6 -4 -7 -12 -10 -17 -7 -5 4 -9
2 -9 -4 0 -5 4 -11 10 -13 6 -2 6 -8 0 -18 -8 -13 -10 -13 -10 2 0 10 -10 27
-22 39 l-23 21 23 -11 c12 -6 22 -8 22 -3 0 5 -10 14 -22 20 -13 6 -17 11 -10
11 6 1 21 -8 31 -18z m126 -320 c3 -5 2 -12 -3 -15 -5 -3 -9 1 -9 9 0 17 3 19
12 6z m-116 -33 c-13 -24 -13 -26 2 -44 12 -14 1 -70 -17 -85 -8 -6 -14 -7
-14 -2 0 5 -7 10 -15 10 -18 0 -20 -14 -2 -20 15 -6 -4 -30 -27 -33 -11 -2
-13 3 -6 21 11 30 31 65 49 88 8 9 11 17 7 17 -4 0 -4 6 1 13 8 13 10 18 12
42 0 8 6 15 11 15 7 0 6 -8 -1 -22z"/>
<path d="M4567 2832 c1 -3 -3 -12 -10 -21 -24 -27 -26 -47 -7 -48 12 -1 20 8
24 30 3 17 2 34 -2 38 -5 3 -7 4 -5 1z m-4 -42 c-3 -12 -8 -19 -11 -16 -5 6 5
36 12 36 2 0 2 -9 -1 -20z"/>
<path d="M4510 2724 c0 -8 5 -12 10 -9 6 4 8 11 5 16 -9 14 -15 11 -15 -7z"/>
<path d="M4593 3147 c4 -10 7 -28 7 -40 0 -20 0 -20 14 -1 14 18 15 18 21 1 4
-10 0 -28 -9 -42 -9 -14 -14 -25 -11 -25 2 0 0 -11 -4 -24 -7 -16 -5 -32 4
-49 8 -16 9 -29 3 -35 -5 -5 -11 -27 -13 -50 -3 -32 -1 -40 12 -38 8 1 20 10
25 19 5 10 12 15 16 13 10 -6 9 45 -1 61 -7 12 7 26 31 29 20 3 23 9 16 27 -8
22 -34 30 -34 11 0 -8 4 -13 9 -9 5 3 13 0 17 -6 5 -8 3 -9 -6 -4 -9 6 -11 4
-5 -6 7 -12 6 -12 -7 -1 -14 11 -17 10 -20 -5 -3 -15 -5 -14 -10 5 -3 12 -2
20 3 16 5 -3 9 2 9 10 0 9 -6 15 -12 14 -20 -4 -28 -21 -16 -35 6 -7 7 -13 2
-13 -5 0 -2 -5 6 -11 13 -9 13 -10 0 -6 -8 2 -15 9 -15 15 0 5 -3 13 -6 17 -7
6 17 85 31 98 4 5 17 4 28 -2 18 -10 20 -8 17 9 -6 31 -12 37 -37 35 -13 -1
-34 7 -47 19 -21 19 -23 19 -18 3z m77 -41 c-7 -7 -13 -7 -20 0 -6 6 -3 10 10
10 13 0 16 -4 10 -10z m-14 -188 c1 -9 -6 -24 -17 -34 -10 -9 -16 -21 -12 -27
3 -6 1 -7 -6 -3 -8 6 -9 12 -2 20 7 9 7 17 -2 26 -10 12 -9 12 5 2 9 -8 19 -9
22 -4 3 6 -1 13 -10 16 -8 3 -12 11 -9 16 9 15 28 7 31 -12z"/>
<path d="M4646 3064 c-3 -9 -6 -23 -6 -32 0 -14 2 -15 9 -2 6 8 7 18 4 24 -3
5 -1 6 5 2 6 -4 9 -14 6 -24 -5 -14 -4 -15 5 -2 7 10 11 11 11 3 0 -7 5 -13
12 -13 6 0 4 7 -5 18 -10 10 -17 24 -17 30 0 17 -17 15 -24 -4z"/>
<path d="M4850 3045 c0 -5 5 -17 10 -25 5 -8 10 -10 10 -5 0 6 -5 17 -10 25
-5 8 -10 11 -10 5z"/>
<path d="M4902 2896 c0 -11 -3 -30 -6 -41 -8 -20 -7 -20 8 -1 12 15 16 16 16
5 0 -12 2 -12 10 1 5 8 10 10 10 4 0 -14 -30 -40 -31 -28 -1 5 -4 -4 -8 -21
-4 -16 -12 -29 -19 -27 -13 2 -17 -14 -4 -21 4 -2 2 -3 -5 -1 -6 1 -13 -6 -16
-17 -3 -10 -3 -19 -1 -19 13 0 43 39 49 63 4 15 16 32 27 38 18 10 22 48 4 41
-10 -4 -26 17 -26 33 0 6 4 4 9 -4 5 -7 14 -10 20 -7 19 12 12 24 -14 24 -19
0 -24 -5 -23 -22z"/>
<path d="M4861 2874 c-1 -25 -57 -114 -82 -132 -11 -8 -16 -19 -12 -30 3 -9 3
-14 -2 -10 -10 9 -35 -10 -35 -26 0 -6 7 -2 15 8 11 14 15 16 15 5 0 -11 2
-12 9 -1 4 8 12 13 17 13 27 -2 48 16 65 56 10 24 23 41 29 38 12 -8 13 37 1
51 -5 5 -11 18 -14 29 -5 20 -5 20 -6 -1z m-8 -91 c-15 -20 -27 -38 -25 -40 1
-2 -4 -11 -13 -19 -11 -12 -15 -12 -16 -2 0 7 -4 4 -9 -7 -7 -17 -9 -17 -9 -2
-1 18 39 64 52 59 4 -1 7 3 6 10 -1 7 4 26 11 41 11 23 15 25 22 12 6 -10 1
-26 -19 -52z"/>
<path d="M4851 2807 c-13 -21 -12 -21 5 -5 10 10 16 20 13 22 -3 3 -11 -5 -18
-17z"/>
<path d="M4805 2740 c-3 -6 1 -7 9 -4 18 7 21 14 7 14 -6 0 -13 -4 -16 -10z"/>
<path d="M5965 4841 c-2 -5 -38 -6 -78 -3 -100 6 -161 -15 -232 -80 -46 -42
-145 -179 -145 -201 0 -4 33 26 73 67 91 92 163 129 260 134 63 4 75 1 144
-33 41 -20 93 -55 114 -76 21 -21 45 -39 52 -39 13 0 180 110 174 116 -2 2
-21 -1 -42 -7 -65 -18 -129 -6 -189 35 -29 20 -53 43 -53 51 0 8 4 12 9 9 5
-3 6 -9 3 -14 -3 -4 2 -10 10 -14 8 -3 17 0 21 7 4 7 4 9 -1 5 -5 -5 -14 1
-22 12 -8 12 -20 17 -30 13 -11 -4 -14 -3 -9 6 4 6 4 11 -1 10 -4 -1 -10 0
-13 1 -18 7 -41 7 -45 1z m29 -13 c-3 -4 0 -8 7 -8 7 0 10 -2 7 -5 -7 -7 -38
5 -38 14 0 4 7 8 15 8 8 0 12 -4 9 -9z"/>
<path d="M5775 4731 c-151 -93 -107 -303 68 -327 117 -16 218 101 187 216 -12
46 -51 95 -91 115 -40 21 -127 19 -164 -4z m156 -15 c134 -66 103 -269 -45
-291 -60 -9 -109 9 -146 53 -55 66 -49 157 13 214 52 47 113 56 178 24z"/>
<path d="M5845 4658 c-62 -34 -74 -110 -26 -159 54 -53 139 -29 159 46 12 44
0 77 -37 102 -37 25 -65 28 -96 11z m113 -37 c8 -4 12 -19 10 -32 -2 -18 -9
-24 -28 -24 -19 0 -26 6 -28 24 -3 20 11 41 28 41 3 0 11 -4 18 -9z m-58 -51
c0 -5 -7 -10 -16 -10 -8 0 -12 5 -9 10 3 6 10 10 16 10 5 0 9 -4 9 -10z"/>
<path d="M4290 4673 c-77 -12 -77 -13 -17 -38 34 -13 81 -45 117 -79 66 -61
100 -83 100 -66 0 5 -4 10 -8 10 -19 0 -87 80 -109 128 -25 53 -27 54 -83 45z"/>
<path d="M6130 4555 c-13 -35 -70 -95 -119 -127 -25 -15 -39 -28 -33 -28 19 0
90 38 161 86 48 34 73 44 105 45 l41 1 -32 14 c-18 7 -51 18 -73 23 -38 8 -42
7 -50 -14z"/>
<path d="M4925 3600 c10 -11 20 -20 23 -20 3 0 -3 9 -13 20 -10 11 -20 20 -23
20 -3 0 3 -9 13 -20z"/>
<path d="M4995 3530 c10 -11 20 -20 23 -20 3 0 -3 9 -13 20 -10 11 -20 20 -23
20 -3 0 3 -9 13 -20z"/>
<path d="M5030 3506 c0 -3 9 -10 20 -16 11 -6 20 -8 20 -6 0 3 -9 10 -20 16
-11 6 -20 8 -20 6z"/>
<path d="M5145 3450 c19 -8 73 -14 64 -6 -2 2 -22 6 -44 9 -28 5 -34 4 -20 -3z"/>
<path d="M5318 3443 c7 -3 16 -2 19 1 4 3 -2 6 -13 5 -11 0 -14 -3 -6 -6z"/>
<path d="M5872 2930 c0 -19 2 -27 5 -17 2 9 2 25 0 35 -3 9 -5 1 -5 -18z"/>
<path d="M5894 2904 c1 -12 8 -29 16 -39 8 -9 15 -24 16 -32 2 -8 10 -23 18
-32 14 -15 14 -20 3 -29 -8 -7 -16 -9 -20 -6 -11 11 -1 -24 11 -39 8 -10 9
-17 3 -21 -5 -4 -14 2 -20 11 -6 10 -11 13 -11 6 0 -6 4 -14 10 -18 5 -3 7
-13 4 -23 -5 -13 -4 -14 4 -3 6 8 12 9 16 3 3 -6 2 -13 -4 -17 -5 -3 -10 -11
-10 -18 0 -6 6 -2 14 9 9 11 11 23 5 30 -5 6 -4 15 2 21 7 7 5 14 -6 23 -14
12 -14 15 4 34 11 12 21 26 21 31 1 6 6 9 12 7 5 -1 7 2 3 8 -5 8 -11 8 -20 0
-10 -9 -16 -6 -25 9 -6 12 -8 21 -4 21 4 0 -1 10 -12 23 -21 23 -24 34 -12 53
4 6 1 11 -6 11 -7 0 -12 -10 -12 -23z"/>
<path d="M5924 2896 c3 -24 22 -40 31 -27 3 7 1 10 -6 9 -7 -2 -13 2 -14 9 0
6 -3 14 -7 18 -3 4 -5 0 -4 -9z"/>
<path d="M5142 2850 c0 -19 2 -27 5 -17 2 9 2 25 0 35 -3 9 -5 1 -5 -18z"/>
<path d="M5881 2854 c0 -11 3 -14 6 -6 3 7 2 16 -1 19 -3 4 -6 -2 -5 -13z"/>
<path d="M5959 2858 c-5 -18 -6 -38 -1 -34 7 8 12 36 6 36 -2 0 -4 -1 -5 -2z"/>
<path d="M5893 2815 c-3 -9 -3 -19 1 -22 3 -4 6 1 6 11 0 10 5 14 12 10 7 -4
8 -3 4 4 -10 16 -15 15 -23 -3z"/>
<path d="M5110 2805 c-7 -8 -9 -15 -5 -15 4 0 1 -7 -6 -16 -16 -19 -21 -47 -7
-38 5 3 7 9 4 12 -3 3 2 14 11 25 10 10 18 22 18 26 0 3 4 5 8 3 5 -1 6 2 2 8
-8 13 -10 13 -25 -5z"/>
<path d="M5916 2792 c-3 -5 1 -9 9 -9 8 0 12 4 9 9 -3 4 -7 8 -9 8 -2 0 -6 -4
-9 -8z"/>
<path d="M5122 2765 c-6 -13 -7 -27 -3 -30 5 -2 11 8 14 23 7 35 3 38 -11 7z"/>
<path d="M5901 2754 c0 -11 3 -14 6 -6 3 7 2 16 -1 19 -3 4 -6 -2 -5 -13z"/>
<path d="M5961 2756 c-8 -10 -8 -16 3 -25 10 -8 16 -9 21 -1 4 6 2 9 -3 8 -6
-2 -9 2 -8 7 0 6 5 9 9 7 5 -1 6 2 2 8 -8 13 -10 13 -24 -4z"/>
<path d="M5095 2720 c-4 -6 -10 -8 -15 -5 -4 3 -7 -3 -5 -12 1 -10 0 -22 -4
-28 -8 -15 -11 -38 -3 -30 4 4 8 11 8 16 1 5 3 11 4 14 1 3 3 8 4 13 1 4 5 13
10 21 7 11 10 11 17 0 6 -10 9 -10 9 -2 0 16 -17 26 -25 13z"/>
<path d="M5096 2675 c-9 -26 -7 -32 5 -12 6 10 9 21 6 23 -2 3 -7 -2 -11 -11z"/>
<path d="M5050 2580 c-6 -11 -8 -20 -6 -20 3 0 10 9 16 20 6 11 8 20 6 20 -3
0 -10 -9 -16 -20z"/>
<path d="M4525 2394 c-33 -7 -76 -16 -95 -19 -145 -25 -240 -36 -333 -40 -126
-6 -148 -15 -207 -82 -62 -71 -98 -137 -195 -364 -48 -112 -117 -267 -152
-344 -35 -77 -74 -164 -85 -192 l-21 -53 61 -157 c33 -87 95 -249 138 -360
l77 -203 479 0 478 0 -1 61 c-1 48 -9 75 -33 123 -59 112 -228 408 -398 695
-92 156 -168 285 -168 287 0 2 30 20 68 39 56 30 61 35 32 30 -19 -4 -52 -9
-73 -12 -29 -4 -37 -10 -32 -21 4 -12 3 -13 -10 -2 -8 7 -22 10 -30 6 -19 -7
-19 9 0 26 60 53 584 598 573 597 -7 -1 -40 -8 -73 -15z"/>
<path d="M6275 2313 c3 -10 26 -72 50 -138 97 -265 121 -324 179 -443 25 -51
46 -95 46 -97 0 -5 -87 27 -125 45 -30 15 -335 118 -335 113 0 -2 37 -78 81
-170 l81 -167 -38 -34 c-120 -106 -421 -380 -480 -437 -30 -29 -128 -119 -218
-200 -72 -64 -111 -119 -130 -182 l-7 -23 936 0 c887 0 936 1 931 18 -5 14
-24 118 -41 222 -2 14 -13 79 -24 145 -21 126 -66 412 -76 480 -3 22 -7 49
-10 60 -2 11 -7 45 -10 75 -15 148 -38 289 -52 330 -23 64 -65 114 -133 155
-46 28 -608 265 -628 265 -2 0 -1 -8 3 -17z"/>
<path d="M4460 1876 c-119 -26 -163 -41 -247 -84 -57 -29 -103 -54 -103 -56 0
-2 76 -131 168 -287 93 -156 217 -371 276 -476 59 -106 108 -193 109 -193 3 0
0 189 -6 380 -4 102 -10 312 -13 468 -6 251 -8 282 -23 281 -9 -1 -81 -15
-161 -33z"/>
<path d="M5921 1808 c-10 -24 -53 -122 -96 -218 -42 -96 -138 -312 -212 -480
-74 -168 -137 -309 -141 -315 -3 -5 8 2 24 16 16 14 47 41 68 60 39 34 214
194 391 359 51 47 130 119 177 160 l85 74 -34 66 c-18 36 -56 113 -82 172 -43
94 -54 109 -83 121 -77 32 -77 32 -97 -15z"/>
<path d="M3180 1783 c-14 -9 -27 -20 -30 -24 -9 -12 -147 -78 -247 -118 -131
-52 -255 -89 -326 -97 -32 -4 -61 -12 -63 -19 -3 -7 40 -129 94 -271 55 -143
135 -352 178 -466 l79 -208 407 0 c384 0 407 1 401 17 -3 10 -31 86 -63 168
-32 83 -86 224 -120 315 -92 241 -169 442 -180 465 -10 20 -78 206 -87 238 -7
21 -12 21 -43 0z"/>
<path d="M4315 550 c824 -3 1481 -9 1494 -14 17 -7 22 -6 17 2 -5 9 176 13
726 15 403 1 -266 2 -1487 2 -1993 0 -2069 0 -750 -5z"/>
</g>
</svg>
